<?xml version="1.0" encoding="UTF-8"?>
<svg width="144" height="32" xmlns="http://www.w3.org/2000/svg">
 <g>
  <title>Layer 1</title>
  <g id="BG"/>
  <g id="controls">
   <path id="Line" d="m98.5,7.5l11,0" stroke="#ffffff" fill="#3f3f3f"/>
   <path id="Line2" d="m98.5,3.5l11,0" stroke="#ffffff" fill="#3f3f3f"/>
   <path id="Line3" d="m98.5,11.5l11,0" stroke="#ffffff" fill="#3f3f3f"/>
   <path id="Ellipse" d="m108,11.5c0,-0.8284 0.447701,-1.5 1,-1.5c0.552299,0 1,0.6716 1,1.5c0,0.8284 -0.447701,1.5 -1,1.5c-0.552299,0 -1,-0.6716 -1,-1.5z" fill="#3f3f3f"/>
   <path id="Ellipse2" d="m104,7.5c0,-0.8284 0.447701,-1.5 1,-1.5c0.552299,0 1,0.6716 1,1.5c0,0.8284 -0.447701,1.5 -1,1.5c-0.552299,0 -1,-0.6716 -1,-1.5z" fill="#3f3f3f"/>
   <path id="Ellipse3" d="m108,3.5c0,-0.8284 0.447701,-1.5 1,-1.5c0.552299,0 1,0.6716 1,1.5c0,0.8284 -0.447701,1.5 -1,1.5c-0.552299,0 -1,-0.6716 -1,-1.5z" fill="#3f3f3f"/>
  </g>
  <g id="backlight">
   <g id="off">
    <rect x="83" y="21" width="10" height="6" stroke="#ffffff" fill="#3f3f3f" id="svg_1"/>
   </g>
   <g id="on">
    <path id="Ellipse4" d="m81,8c0,-2.7615 3.134003,-5 7,-5c3.865997,0 7,2.2385 7,5c0,2.7615 -3.134003,5 -7,5c-3.865997,0 -7,-2.2385 -7,-5z" fill="#3f3f3f"/>
    <rect x="83" y="5" width="10" height="6" stroke="#ffffff" fill="#3f3f3f" id="svg_2"/>
   </g>
  </g>
  <g id="loop">
   <g id="on2">
    <path d="m73.794998,4.205c1.420502,0.6735 2.404999,2.1184 2.404999,3.795c0,2.3196 -1.880394,4.2 -4.199997,4.2c-2.319603,0 -4.199997,-1.8804 -4.199997,-4.2c0,-1.6766 0.984497,-3.1215 2.404999,-3.795l-1.330002,-1.33c-1.724899,1.0539 -2.875,2.9556 -2.875,5.125c0,3.3138 2.686203,6 6,6c3.313797,0 6,-2.6862 6,-6c0,-2.1694 -1.150101,-4.0711 -2.875,-5.125l-1.330002,1.33z" fill="#3f3f3f" id="svg_3"/>
    <path d="m71,2l-5,0l5,5l0,-5z" fill="#3f3f3f" id="svg_4"/>
   </g>
   <g id="off2">
    <path d="m73.794998,20.205c1.420502,0.6735 2.404999,2.118401 2.404999,3.795c0,2.319599 -1.880394,4.200001 -4.199997,4.200001c-2.319603,0 -4.199997,-1.880402 -4.199997,-4.200001c0,-1.6766 0.984497,-3.1215 2.404999,-3.795l-1.330002,-1.33c-1.724899,1.0539 -2.875,2.955601 -2.875,5.125c0,3.313801 2.686203,6 6,6c3.313797,0 6,-2.686199 6,-6c0,-2.169399 -1.150101,-4.0711 -2.875,-5.125l-1.330002,1.33z" fill="#3f3f3f" id="svg_5"/>
    <path d="m71,18l-5,0l5,5l0,-5z" fill="#3f3f3f" id="svg_6"/>
   </g>
  </g>
  <g id="cc">
   <rect x="49" y="2" width="14" height="12" stroke="#b0b0b0" fill="#3f3f3f" id="svg_7"/>
   <text x="49" y="17" fill="#3f3f3f" font-size=" 10px" id="svg_8">
    <tspan id="svg_9" fill="#3f3f3f">
     <![CDATA[cc]]>
    </tspan>
   </text>
   <path d="m55,7c-4.7187,-3.2187 -4.937,5.9405 0,3" stroke="#ffffff" fill="#3f3f3f" id="svg_10"/>
   <path d="m60,7c-4.7187,-3.2187 -4.937,5.9405 0,3" stroke="#ffffff" fill="#3f3f3f" id="svg_11"/>
   <path d="m50,3l12,0l0,10l-12,0l0,-10zm-1,-1l0,12l14,0l0,-12l-14,0z" fill="#3f3f3f" id="svg_12"/>
   <rect x="49" y="2" width="14" height="12" fill="#3f3f3f" id="svg_13"/>
  </g>
  <g id="volume">
   <g id="no%20sound">
    <rect x="17" y="5" width="5" height="6" fill="#3f3f3f" id="svg_14"/>
    <path d="m21,5l4,-3l0,12l-4,-2.9375l0,-6.0625z" fill="#3f3f3f" id="svg_15"/>
   </g>
   <g id="sound%20bars">
    <rect x="17" y="21" width="5" height="6" fill="#3f3f3f" id="svg_16"/>
    <path d="m21,21l4,-3l0,12l-4,-2.9375l0,-6.0625z" fill="#3f3f3f" id="svg_17"/>
    <polyline id="svg_33" points="264,205 266,205 269,205 271,205 272,205 277,207 280,209 285,212 287,213 287,215 288,216 288,219 288,223 289,228 290,232 290,235 290,238 290,241 290,244 290,247 289,250 288,253 286,257 285,260 285,261 285,264 " opacity="0.5" stroke-linecap="round" fill="none"/>
    <text xml:space="preserve" text-anchor="middle" font-family="serif" font-size="24" id="svg_34" y="29" x="298" stroke-width="0" fill="#000000">a</text>
    <path stroke-width="0" d="m26,21.0079c0,0 2.041,-0.311701 1.999399,2.9921c-0.041698,3.303801 -1.999399,2.9921 -1.999399,2.9921" stroke="#ffffff" fill="#3f3f3f" id="svg_19"/>
   </g>
  </g>
  <g id="play/pause">
   <g id="play">
    <path id="Polygon" d="m14,8.5l-11,5.5l0,-11l11,5.5z" fill="#3f3f3f"/>
   </g>
   <g id="pause">
    <rect x="3.4" y="18" width="3" height="12" fill="#3f3f3f" id="svg_20"/>
    <rect x="9.6" y="18" width="3" height="12" fill="#3f3f3f" id="svg_21"/>
   </g>
  </g>
  <g id="fullscreen">
   <g id="enter%201">
    <path d="m34,2l5,0l-5,5l0,-5z" fill="#3f3f3f" id="svg_22"/>
    <path d="m34,14l5,0l-5,-5l0,5z" fill="#3f3f3f" id="svg_23"/>
    <path d="m46,2l-5,0l5,5l0,-5z" fill="#3f3f3f" id="svg_24"/>
    <path d="m46,14l-5,0l5,-5l0,5z" fill="#3f3f3f" id="svg_25"/>
   </g>
   <g id="exit">
    <path d="m42,22l4,0l-4,-4l0,4z" fill="#3f3f3f" id="svg_26"/>
    <path d="m38,22l0,-4l-4,4l4,0z" fill="#3f3f3f" id="svg_27"/>
    <path d="m38,26l-4,0l4,4l0,-4z" fill="#3f3f3f" id="svg_28"/>
    <path d="m42,26l0,4l4,-4l-4,0z" fill="#3f3f3f" id="svg_29"/>
   </g>
  </g>
  <g id="stop">
   <rect x="115" y="3" width="10" height="10" fill="#3f3f3f" id="svg_30"/>
  </g>
  <g id="chooser">
   <path d="m135.234604,6.1522c1.020493,-0.4227 2.190491,0.0619 2.61319,1.0824c0.422607,1.0205 -0.06189,2.1904 -1.082397,2.6132c-1.020493,0.4227 -2.190491,-0.0619 -2.61319,-1.0824c-0.422699,-1.0205 0.06189,-2.1905 1.082397,-2.6132zm-1.961105,-4.7346l2.726501,2.5878l2.726501,-2.5878l0.098099,3.7578l3.757797,0.0981l-2.587799,2.7265l2.587799,2.7265l-3.757797,0.098101l-0.098099,3.7578l-2.726501,-2.5878l-2.726501,2.5878l-0.098099,-3.7578l-3.757797,-0.098101l2.587799,-2.7265l-2.587799,-2.7265l3.757797,-0.0981l0.098099,-3.7578z" fill="#3f3f3f" id="svg_31"/>
  </g>
 </g>

</svg>